<?xml version="1.0" encoding="utf-8"?>
<!-- Generator: Adobe Illustrator 16.0.0, SVG Export Plug-In . SVG Version: 6.00 Build 0)  -->
<!DOCTYPE svg PUBLIC "-//W3C//DTD SVG 1.1//EN" "http://www.w3.org/Graphics/SVG/1.1/DTD/svg11.dtd">
<svg version="1.1" id="Layer_1" xmlns="http://www.w3.org/2000/svg" xmlns:xlink="http://www.w3.org/1999/xlink" x="0px" y="0px"
	 width="1100px" height="400px" viewBox="0 0 1100 400" enable-background="new 0 0 1100 400" xml:space="preserve">
<g>
	<g>
		<g>
			<g>
				<defs>
					<rect id="SVGID_1_" x="117.973" y="98.347" width="864.055" height="203.307"/>
				</defs>
				<defs>
					<path id="SVGID_2_" d="M156.375,246.93c-6.099,0-9.148-4.217-9.148-12.649v-79.459h23.606v-15.586h-23.606v-28.237
						l-17.958,5.987v22.25h-11.295v15.586h11.295v79.459c-0.593,8.125,1.864,16.179,6.89,22.59
						c5.518,5.515,13.172,8.342,20.952,7.737c3.741-0.117,7.424-0.961,10.842-2.485c3.437-1.313,6.499-3.445,8.923-6.213
						l-12.368-12.988C162.754,245.667,159.621,247.211,156.375,246.93L156.375,246.93L156.375,246.93z"/>
				</defs>
				<clipPath id="SVGID_3_">
					<use xlink:href="#SVGID_1_"  overflow="visible"/>
				</clipPath>
				<clipPath id="SVGID_4_" clip-path="url(#SVGID_3_)">
					<use xlink:href="#SVGID_2_"  overflow="visible"/>
				</clipPath>
				<rect x="75.617" y="68.642" clip-path="url(#SVGID_4_)" fill="#0076F0" width="143.614" height="238.401"/>
			</g>
			<g>
				<defs>
					<rect id="SVGID_5_" x="117.973" y="98.347" width="864.055" height="203.307"/>
				</defs>
				<defs>
					<path id="SVGID_6_" d="M208.331,140.872c-2.294,1.747-4.214,3.936-5.646,6.438l-4.066-7.793h-11.747v122.266h17.902v-92.674
						c-0.147-3.632,1.129-7.178,3.558-9.883c2.105-2.429,5.146-3.847,8.359-3.896c2.021-0.294,4.073,0.279,5.648,1.581l6.099-15.812
						c-2.988-2.452-6.83-3.61-10.673-3.218C214.363,137.727,211.02,138.787,208.331,140.872L208.331,140.872L208.331,140.872z"/>
				</defs>
				<clipPath id="SVGID_7_">
					<use xlink:href="#SVGID_5_"  overflow="visible"/>
				</clipPath>
				<clipPath id="SVGID_8_" clip-path="url(#SVGID_7_)">
					<use xlink:href="#SVGID_6_"  overflow="visible"/>
				</clipPath>
				<rect x="144.516" y="95.449" clip-path="url(#SVGID_8_)" fill="#0076F0" width="126.276" height="208.689"/>
			</g>
			<g>
				<defs>
					<rect id="SVGID_9_" x="117.973" y="98.347" width="864.055" height="203.307"/>
				</defs>
				<defs>
					<path id="SVGID_10_" d="M278.755,233.885c0.3,3.626-1.048,7.193-3.672,9.714c-2.495,2.09-5.668,3.194-8.922,3.105
						c-3.332,0.112-6.575-1.083-9.036-3.332c-2.508-2.499-3.824-5.953-3.614-9.487v-94.65h-17.846v92.843
						c-0.564,8.593,1.915,17.11,7.003,24.058c4.741,5.643,11.84,8.753,19.201,8.415c4.515,0.344,9.028-0.699,12.933-2.993
						c2.286-1.549,4.308-3.456,5.986-5.648l4.067,5.648h11.803V139.235h-17.902V233.885L278.755,233.885z"/>
				</defs>
				<clipPath id="SVGID_11_">
					<use xlink:href="#SVGID_9_"  overflow="visible"/>
				</clipPath>
				<clipPath id="SVGID_12_" clip-path="url(#SVGID_11_)">
					<use xlink:href="#SVGID_10_"  overflow="visible"/>
				</clipPath>
				<rect x="193.23" y="96.879" clip-path="url(#SVGID_12_)" fill="#0076F0" width="145.782" height="210.092"/>
			</g>
			<g>
				<defs>
					<rect id="SVGID_13_" x="117.973" y="98.347" width="864.055" height="203.307"/>
				</defs>
				<defs>
					<path id="SVGID_14_" d="M367.588,214.231c-2.959-4.654-6.638-8.81-10.9-12.312l-12.819-10.73
						c-3.961-3.23-7.577-6.864-10.786-10.843c-2.921-3.565-4.499-8.042-4.462-12.65c-0.196-3.554,0.931-7.055,3.163-9.827
						c2.273-2.46,5.521-3.784,8.866-3.614c3.319-0.145,6.543,1.128,8.867,3.501c2.332,2.614,3.53,6.047,3.332,9.543v4.461
						l17.507,4.01v-8.472c0.351-7.853-2.339-15.539-7.511-21.458c-5.727-5.683-13.644-8.59-21.686-7.963
						c-4.207-0.052-8.384,0.696-12.312,2.201c-3.589,1.378-6.871,3.451-9.656,6.1c-2.756,2.657-4.913,5.872-6.326,9.431
						c-1.535,3.862-2.302,7.986-2.259,12.141c-0.097,5.088,0.846,10.142,2.768,14.853c1.798,4.226,4.236,8.15,7.229,11.634
						c2.124,2.498,4.427,4.838,6.89,7.004c2.447,2.146,4.913,4.217,7.398,6.212l7.398,6.042c2.566,1.943,4.983,4.076,7.229,6.383
						c1.467,1.835,2.63,3.894,3.445,6.099c0.785,2.56,1.128,5.232,1.017,7.906c0,8.547-4.612,12.819-13.836,12.819
						c-3.521,0.152-6.957-1.108-9.544-3.501c-2.489-2.445-3.824-5.832-3.672-9.318v-4.631l-17.901-3.783v8.414
						c-0.048,4.247,0.719,8.465,2.259,12.425c1.413,3.621,3.589,6.896,6.382,9.6c2.843,2.716,6.203,4.828,9.883,6.213
						c4.024,1.51,8.295,2.257,12.594,2.203c4.93,0.112,9.825-0.851,14.344-2.824c3.824-1.746,7.217-4.31,9.94-7.511
						c2.562-3.177,4.479-6.821,5.647-10.73c1.306-3.994,1.991-8.165,2.033-12.367c-0.011-2.943-0.429-5.87-1.242-8.697
						C370.149,219.401,369.046,216.721,367.588,214.231L367.588,214.231L367.588,214.231z"/>
				</defs>
				<clipPath id="SVGID_15_">
					<use xlink:href="#SVGID_13_"  overflow="visible"/>
				</clipPath>
				<clipPath id="SVGID_16_" clip-path="url(#SVGID_15_)">
					<use xlink:href="#SVGID_14_"  overflow="visible"/>
				</clipPath>
				<rect x="266.667" y="95.439" clip-path="url(#SVGID_16_)" fill="#0076F0" width="147.795" height="211.25"/>
			</g>
			<g>
				<defs>
					<rect id="SVGID_17_" x="117.973" y="98.347" width="864.055" height="203.307"/>
				</defs>
				<defs>
					<path id="SVGID_18_" d="M418.189,246.93c-6.099,0-9.149-4.217-9.149-12.649v-79.459h23.606v-15.586h-23.606v-28.237
						l-17.903,5.987v22.25h-11.294v15.586h11.294v79.459c-0.592,8.125,1.864,16.179,6.89,22.59
						c5.519,5.515,13.173,8.342,20.953,7.737c3.722-0.124,7.385-0.967,10.786-2.485c3.435-1.313,6.499-3.445,8.923-6.213
						l-12.368-12.988C424.568,245.667,421.436,247.211,418.189,246.93L418.189,246.93L418.189,246.93z"/>
				</defs>
				<clipPath id="SVGID_19_">
					<use xlink:href="#SVGID_17_"  overflow="visible"/>
				</clipPath>
				<clipPath id="SVGID_20_" clip-path="url(#SVGID_19_)">
					<use xlink:href="#SVGID_18_"  overflow="visible"/>
				</clipPath>
				<rect x="337.488" y="68.642" clip-path="url(#SVGID_20_)" fill="#0076F0" width="143.558" height="238.401"/>
			</g>
			<g>
				<defs>
					<rect id="SVGID_21_" x="117.973" y="98.347" width="864.055" height="203.307"/>
				</defs>
				<defs>
					<path id="SVGID_22_" d="M457.439,98.347c-2.646-0.032-5.145,1.208-6.721,3.332c-1.732,2.119-2.671,4.775-2.654,7.512
						c-0.075,2.831,0.867,5.596,2.654,7.793c1.606,2.073,4.098,3.267,6.721,3.218c2.565,0.071,4.997-1.135,6.495-3.218
						c1.671-2.261,2.599-4.984,2.654-7.793c0.061-2.759-0.837-5.455-2.542-7.625C462.488,99.495,460.031,98.298,457.439,98.347
						L457.439,98.347L457.439,98.347z"/>
				</defs>
				<clipPath id="SVGID_23_">
					<use xlink:href="#SVGID_21_"  overflow="visible"/>
				</clipPath>
				<clipPath id="SVGID_24_" clip-path="url(#SVGID_23_)">
					<use xlink:href="#SVGID_22_"  overflow="visible"/>
				</clipPath>
				<rect x="405.705" y="55.99" clip-path="url(#SVGID_24_)" fill="#0076F0" width="103.242" height="106.571"/>
			</g>
			<g>
				<defs>
					<rect id="SVGID_25_" x="448.064" y="139.235" width="17.902" height="122.492"/>
				</defs>
				<clipPath id="SVGID_26_">
					<use xlink:href="#SVGID_25_"  overflow="visible"/>
				</clipPath>
				<rect x="405.708" y="96.879" clip-path="url(#SVGID_26_)" fill="#0076F0" width="102.613" height="207.203"/>
			</g>
			<g>
				<defs>
					<rect id="SVGID_27_" x="117.973" y="98.347" width="864.055" height="203.307"/>
				</defs>
				<defs>
					<path id="SVGID_28_" d="M514.535,137.88c-4.085-0.171-8.16,0.502-11.973,1.976c-2.881,1.321-5.443,3.247-7.511,5.647
						l-4.066-5.647h-11.577v121.928h17.903v-94.482c-0.263-3.76,1.369-7.404,4.349-9.713c5.718-4.426,13.707-4.426,19.427,0
						c2.958,2.321,4.567,5.963,4.291,9.713v94.482h17.903v-95.046c0.376-7.833-2.459-15.481-7.85-21.177
						C529.844,140.193,522.266,137.408,514.535,137.88L514.535,137.88z"/>
				</defs>
				<clipPath id="SVGID_29_">
					<use xlink:href="#SVGID_27_"  overflow="visible"/>
				</clipPath>
				<clipPath id="SVGID_30_" clip-path="url(#SVGID_29_)">
					<use xlink:href="#SVGID_28_"  overflow="visible"/>
				</clipPath>
				<rect x="437.051" y="95.472" clip-path="url(#SVGID_30_)" fill="#0076F0" width="148.617" height="208.667"/>
			</g>
			<g>
				<defs>
					<rect id="SVGID_31_" x="117.973" y="98.347" width="864.055" height="203.307"/>
				</defs>
				<defs>
					<path id="SVGID_32_" d="M582.529,243.824c-0.87-1.271-1.378-2.754-1.468-4.292c-0.015-2.063,0.705-4.065,2.032-5.647
						c2.616-2.084,5.928-3.094,9.263-2.823c8.373,0.027,16.445-3.121,22.589-8.811c4.711-5.583,7.114-12.753,6.721-20.048v-48.116
						l8.527-13.44h-22.194c-2.205-1.021-4.544-1.724-6.946-2.09c-3.905-0.587-7.855-0.814-11.803-0.677
						c-8.072-0.433-15.976,2.419-21.912,7.905c-5.584,5.819-8.509,13.689-8.075,21.742v34.902
						c-0.452,11.321,5.907,21.815,16.151,26.656c-2.935,0.473-5.622,1.926-7.625,4.123c-1.392,1.563-2.208,3.556-2.315,5.646
						c-0.073,1.979,0.416,3.938,1.412,5.647c1.07,1.688,2.748,2.902,4.688,3.389c-5.803,1.208-11.078,4.212-15.079,8.584
						c-3.709,4.205-5.723,9.641-5.647,15.248c-0.316,6.664,2.208,13.149,6.946,17.847c5.547,4.711,12.738,7.026,19.993,6.438h23.38
						l9.771-17.62h-32.756c-2.391,0.08-4.757-0.506-6.833-1.694c-1.983-1.147-3.075-3.378-2.768-5.646
						c0-4.745,3.596-7.117,10.786-7.117h36.37l9.939-17.619h-38.968C585.012,246.153,583.477,245.24,582.529,243.824
						L582.529,243.824z M576.882,202.599v-35.692c-0.336-3.753,1.132-7.442,3.953-9.939c5.581-4.15,13.225-4.15,18.807,0
						c2.866,2.47,4.359,6.173,4.009,9.939v35.692c0.291,3.671-1.227,7.255-4.065,9.6c-5.537,4.286-13.271,4.286-18.807,0
						c-2.772-2.391-4.258-5.947-4.01-9.6H576.882L576.882,202.599z"/>
				</defs>
				<clipPath id="SVGID_33_">
					<use xlink:href="#SVGID_31_"  overflow="visible"/>
				</clipPath>
				<clipPath id="SVGID_34_" clip-path="url(#SVGID_33_)">
					<use xlink:href="#SVGID_32_"  overflow="visible"/>
				</clipPath>
				<rect x="508.465" y="95.481" clip-path="url(#SVGID_34_)" fill="#0076F0" width="164.083" height="242.971"/>
			</g>
			<g>
				<defs>
					<rect id="SVGID_35_" x="117.973" y="98.347" width="864.055" height="203.307"/>
				</defs>
				<defs>
					<path id="SVGID_36_" d="M696.043,214.231c-2.958-4.655-6.638-8.81-10.9-12.312l-12.933-10.73
						c-3.963-3.229-7.578-6.863-10.787-10.843c-2.92-3.565-4.498-8.042-4.46-12.65c-0.197-3.554,0.93-7.055,3.161-9.827
						c2.273-2.46,5.522-3.784,8.867-3.614c3.318-0.145,6.543,1.128,8.866,3.501c2.332,2.614,3.53,6.047,3.333,9.543v4.461
						l17.506,4.01v-8.472c0.351-7.853-2.34-15.539-7.511-21.458c-5.699-5.652-13.568-8.557-21.573-7.963
						c-4.206-0.052-8.383,0.696-12.312,2.201c-3.55,1.318-6.811,3.313-9.6,5.875c-2.756,2.658-4.911,5.873-6.326,9.43
						c-1.535,3.862-2.302,7.986-2.259,12.141c-0.097,5.088,0.846,10.142,2.767,14.853c1.712,4.208,4.055,8.131,6.946,11.633
						c2.125,2.498,4.428,4.838,6.891,7.003c2.447,2.146,4.913,4.218,7.398,6.213l7.397,6.042c2.458,2.028,4.761,4.237,6.89,6.608
						c1.468,1.835,2.631,3.894,3.446,6.099c1.073,2.509,1.703,5.183,1.863,7.906c0,8.547-4.612,12.819-13.837,12.819
						c-3.521,0.152-6.956-1.108-9.545-3.501c-2.592-2.396-4.03-5.789-3.952-9.318v-4.631l-17.846-3.614v8.245
						c-0.048,4.247,0.72,8.465,2.258,12.425c1.414,3.621,3.59,6.896,6.383,9.6c2.826,2.709,6.167,4.821,9.826,6.213
						c4.024,1.51,8.295,2.257,12.594,2.203c4.93,0.112,9.825-0.851,14.345-2.824c3.823-1.746,7.217-4.31,9.939-7.511
						c2.562-3.177,4.479-6.821,5.647-10.73c1.296-4.091,1.944-8.359,1.92-12.65c-0.011-2.943-0.429-5.869-1.243-8.696
						C698.5,219.222,697.437,216.64,696.043,214.231L696.043,214.231z"/>
				</defs>
				<clipPath id="SVGID_37_">
					<use xlink:href="#SVGID_35_"  overflow="visible"/>
				</clipPath>
				<clipPath id="SVGID_38_" clip-path="url(#SVGID_37_)">
					<use xlink:href="#SVGID_36_"  overflow="visible"/>
				</clipPath>
				<rect x="595.178" y="95.447" clip-path="url(#SVGID_38_)" fill="#1B2F45" width="147.626" height="211.242"/>
			</g>
			<g>
				<defs>
					<rect id="SVGID_39_" x="117.973" y="98.347" width="864.055" height="203.307"/>
				</defs>
				<defs>
					<path id="SVGID_40_" d="M771.266,154.821c-1.564-3.574-3.853-6.785-6.72-9.431c-2.888-2.518-6.248-4.438-9.884-5.647
						c-3.816-1.299-7.828-1.93-11.859-1.863c-4.148-0.041-8.273,0.628-12.199,1.976c-7.422,2.513-13.394,8.114-16.377,15.361
						c-1.593,3.905-2.382,8.093-2.315,12.31v66.358c-0.064,4.346,0.723,8.663,2.315,12.707c1.444,3.632,3.66,6.909,6.495,9.6
						c2.851,2.664,6.214,4.72,9.882,6.044c3.91,1.418,8.041,2.126,12.199,2.09c4.066,0.032,8.104-0.677,11.917-2.09
						c3.61-1.279,6.945-3.234,9.826-5.761c2.903-2.681,5.195-5.955,6.72-9.6c1.662-4.028,2.489-8.352,2.429-12.708v-66.866
						C773.781,163.016,772.953,158.761,771.266,154.821L771.266,154.821z M755.792,233.885c0.238,3.6-1.175,7.112-3.841,9.544
						c-5.343,4.413-13.065,4.413-18.41,0c-2.623-2.456-4.011-5.957-3.783-9.544v-66.583c-0.248-3.64,1.14-7.199,3.783-9.713
						c5.345-4.412,13.067-4.412,18.41,0c2.686,2.489,4.099,6.061,3.841,9.713V233.885L755.792,233.885z"/>
				</defs>
				<clipPath id="SVGID_41_">
					<use xlink:href="#SVGID_39_"  overflow="visible"/>
				</clipPath>
				<clipPath id="SVGID_42_" clip-path="url(#SVGID_41_)">
					<use xlink:href="#SVGID_40_"  overflow="visible"/>
				</clipPath>
				<rect x="669.553" y="95.519" clip-path="url(#SVGID_42_)" fill="#1B2F45" width="146.503" height="211.163"/>
			</g>
			<g>
				<defs>
					<rect id="SVGID_43_" x="117.973" y="98.347" width="864.055" height="203.307"/>
				</defs>
				<defs>
					<path id="SVGID_44_" d="M838.753,144.486c-2.887-2.417-6.256-4.189-9.884-5.195c-3.867-1.021-7.859-1.496-11.858-1.412
						c-4.12-0.037-8.226,0.495-12.199,1.581c-3.626,0.981-6.997,2.734-9.883,5.139c-2.874,2.479-5.102,5.619-6.494,9.149
						c-1.671,4.416-2.458,9.117-2.315,13.835v66.301c-0.094,4.459,0.692,8.892,2.315,13.045c1.455,3.61,3.67,6.865,6.494,9.545
						c2.865,2.55,6.231,4.474,9.883,5.647c7.826,2.613,16.289,2.613,24.114,0c3.634-1.216,6.991-3.135,9.884-5.647
						c2.933-2.588,5.232-5.814,6.721-9.432c1.716-4.307,2.542-8.917,2.428-13.553v-7.229l-17.902,5.647v1.977
						c0.264,3.621-1.151,7.161-3.84,9.601c-2.562,2.143-5.812,3.285-9.149,3.219c-3.396,0.095-6.704-1.095-9.262-3.332
						c-2.624-2.456-4.012-5.956-3.783-9.544v-66.527c-0.248-3.64,1.139-7.199,3.783-9.713c5.344-4.412,13.066-4.412,18.411,0
						c2.686,2.489,4.097,6.061,3.84,9.713v5.196h17.902v-5.196c0.134-4.655-0.692-9.288-2.428-13.609
						C844.019,150.138,841.697,146.985,838.753,144.486L838.753,144.486L838.753,144.486z"/>
				</defs>
				<clipPath id="SVGID_45_">
					<use xlink:href="#SVGID_43_"  overflow="visible"/>
				</clipPath>
				<clipPath id="SVGID_46_" clip-path="url(#SVGID_45_)">
					<use xlink:href="#SVGID_44_"  overflow="visible"/>
				</clipPath>
				<rect x="743.747" y="95.514" clip-path="url(#SVGID_46_)" fill="#1B2F45" width="146.58" height="210.923"/>
			</g>
			<g>
				<defs>
					<rect id="SVGID_47_" x="117.973" y="98.347" width="864.055" height="203.307"/>
				</defs>
				<defs>
					<path id="SVGID_48_" d="M866.369,98.347c-2.646-0.032-5.145,1.208-6.721,3.332c-1.733,2.119-2.672,4.775-2.654,7.512
						c-0.074,2.831,0.866,5.596,2.654,7.793c1.605,2.073,4.097,3.267,6.721,3.218c2.563,0.071,4.997-1.135,6.493-3.218
						c1.672-2.261,2.6-4.984,2.655-7.793c0.062-2.759-0.837-5.455-2.541-7.625C871.418,99.495,868.96,98.298,866.369,98.347
						L866.369,98.347L866.369,98.347z"/>
				</defs>
				<clipPath id="SVGID_49_">
					<use xlink:href="#SVGID_47_"  overflow="visible"/>
				</clipPath>
				<clipPath id="SVGID_50_" clip-path="url(#SVGID_49_)">
					<use xlink:href="#SVGID_48_"  overflow="visible"/>
				</clipPath>
				<rect x="814.635" y="55.99" clip-path="url(#SVGID_50_)" fill="#1B2F45" width="103.241" height="106.571"/>
			</g>
			<g>
				<defs>
					<rect id="SVGID_51_" x="857.784" y="137.88" width="16.942" height="124.242"/>
				</defs>
				<clipPath id="SVGID_52_">
					<use xlink:href="#SVGID_51_"  overflow="visible"/>
				</clipPath>
				<rect x="815.429" y="95.524" clip-path="url(#SVGID_52_)" fill="#1B2F45" width="101.654" height="208.955"/>
			</g>
			<g>
				<defs>
					<rect id="SVGID_53_" x="117.973" y="98.347" width="864.055" height="203.307"/>
				</defs>
				<defs>
					<path id="SVGID_54_" d="M943.229,145.447c-5.512-5.254-12.952-7.994-20.556-7.567c-3.557-0.065-7.107,0.333-10.562,1.186
						c-2.768,0.712-5.414,1.834-7.85,3.332c-2.13,1.329-4.035,2.987-5.647,4.913c-1.541,1.81-2.992,3.695-4.349,5.647l15.022,9.6
						c1.904-5.525,7.416-8.964,13.215-8.245c3.115-0.244,6.139,1.119,8.019,3.614c1.808,2.803,2.696,6.099,2.542,9.43v6.043
						c-2.299,2.408-4.813,4.601-7.511,6.551l-9.375,6.721c-3.237,2.335-6.495,4.932-9.77,7.794c-3.4,2.892-6.452,6.171-9.093,9.77
						c-2.677,3.787-4.806,7.931-6.325,12.312c-1.704,5.133-2.525,10.517-2.429,15.926c-0.134,4.976,0.651,9.935,2.315,14.627
						c1.43,3.725,3.623,7.11,6.438,9.938c2.464,2.507,5.455,4.435,8.753,5.647c3.125,1.176,6.433,1.787,9.771,1.808
						c4.329,0.215,8.632-0.782,12.425-2.881c2.847-1.672,5.217-4.043,6.889-6.89l4.066,7.003h11.804v-94.425
						C951.489,159.262,948.677,151.377,943.229,145.447L943.229,145.447L943.229,145.447z M933.46,230.893
						c0.104,4.021-1.062,7.974-3.332,11.294c-2.423,3.295-6.371,5.107-10.448,4.801c-3.793,0.221-7.471-1.347-9.939-4.235
						c-2.487-3.414-3.706-7.589-3.444-11.804c-0.078-4.268,0.933-8.485,2.937-12.255c1.938-3.563,4.372-6.834,7.229-9.714
						c2.767-2.791,5.813-5.289,9.093-7.454l8.132-5.31L933.46,230.893L933.46,230.893z"/>
				</defs>
				<clipPath id="SVGID_55_">
					<use xlink:href="#SVGID_53_"  overflow="visible"/>
				</clipPath>
				<clipPath id="SVGID_56_" clip-path="url(#SVGID_55_)">
					<use xlink:href="#SVGID_54_"  overflow="visible"/>
				</clipPath>
				<rect x="846.192" y="95.481" clip-path="url(#SVGID_56_)" fill="#1B2F45" width="147.237" height="211.398"/>
			</g>
			<g>
				<defs>
					<rect id="SVGID_57_" x="117.973" y="98.347" width="864.055" height="203.307"/>
				</defs>
				<defs>
					<polygon id="SVGID_58_" points="964.182,104.164 964.182,261.727 982.027,261.727 982.027,98.347 964.182,104.164 
						964.182,104.164 					"/>
				</defs>
				<clipPath id="SVGID_59_">
					<use xlink:href="#SVGID_57_"  overflow="visible"/>
				</clipPath>
				<clipPath id="SVGID_60_" clip-path="url(#SVGID_59_)">
					<use xlink:href="#SVGID_58_"  overflow="visible"/>
				</clipPath>
				<rect x="921.826" y="55.991" clip-path="url(#SVGID_60_)" fill="#1B2F45" width="102.557" height="248.091"/>
			</g>
		</g>
		<rect fill="none" width="1100" height="400"/>
	</g>
	<g>
		<g>
			<defs>
				<rect id="SVGID_61_" x="117.973" y="96.347" width="864.055" height="203.307"/>
			</defs>
			<defs>
				<path id="SVGID_62_" d="M156.375,244.93c-6.099,0-9.148-4.217-9.148-12.649v-79.459h23.606v-15.586h-23.606v-28.237
					l-17.958,5.987v22.25h-11.295v15.586h11.295v79.459c-0.593,8.125,1.864,16.179,6.89,22.59
					c5.518,5.515,13.172,8.342,20.952,7.737c3.741-0.117,7.424-0.961,10.842-2.485c3.437-1.313,6.499-3.445,8.923-6.213
					l-12.368-12.988C162.754,243.667,159.621,245.211,156.375,244.93L156.375,244.93L156.375,244.93z"/>
			</defs>
			<clipPath id="SVGID_63_">
				<use xlink:href="#SVGID_61_"  overflow="visible"/>
			</clipPath>
			<clipPath id="SVGID_64_" clip-path="url(#SVGID_63_)">
				<use xlink:href="#SVGID_62_"  overflow="visible"/>
			</clipPath>
			<rect x="75.617" y="66.642" clip-path="url(#SVGID_64_)" fill="#0076F0" width="143.614" height="238.401"/>
		</g>
		<g>
			<defs>
				<rect id="SVGID_65_" x="117.973" y="96.347" width="864.055" height="203.307"/>
			</defs>
			<defs>
				<path id="SVGID_66_" d="M208.331,138.872c-2.294,1.747-4.214,3.936-5.646,6.438l-4.066-7.793h-11.747v122.266h17.902v-92.674
					c-0.147-3.632,1.129-7.178,3.558-9.883c2.105-2.429,5.146-3.847,8.359-3.896c2.021-0.294,4.073,0.279,5.648,1.581l6.099-15.812
					c-2.988-2.452-6.83-3.61-10.673-3.218C214.363,135.727,211.02,136.787,208.331,138.872L208.331,138.872L208.331,138.872z"/>
			</defs>
			<clipPath id="SVGID_67_">
				<use xlink:href="#SVGID_65_"  overflow="visible"/>
			</clipPath>
			<clipPath id="SVGID_68_" clip-path="url(#SVGID_67_)">
				<use xlink:href="#SVGID_66_"  overflow="visible"/>
			</clipPath>
			<rect x="144.516" y="93.449" clip-path="url(#SVGID_68_)" fill="#0076F0" width="126.276" height="208.689"/>
		</g>
		<g>
			<defs>
				<rect id="SVGID_69_" x="117.973" y="96.347" width="864.055" height="203.307"/>
			</defs>
			<defs>
				<path id="SVGID_70_" d="M278.755,231.885c0.3,3.626-1.048,7.193-3.672,9.714c-2.495,2.09-5.668,3.194-8.922,3.105
					c-3.332,0.112-6.575-1.083-9.036-3.332c-2.508-2.499-3.824-5.953-3.614-9.487v-94.65h-17.846v92.843
					c-0.564,8.593,1.915,17.11,7.003,24.058c4.741,5.643,11.84,8.753,19.201,8.415c4.515,0.344,9.028-0.699,12.933-2.993
					c2.286-1.549,4.308-3.456,5.986-5.648l4.067,5.648h11.803V137.235h-17.902V231.885L278.755,231.885z"/>
			</defs>
			<clipPath id="SVGID_71_">
				<use xlink:href="#SVGID_69_"  overflow="visible"/>
			</clipPath>
			<clipPath id="SVGID_72_" clip-path="url(#SVGID_71_)">
				<use xlink:href="#SVGID_70_"  overflow="visible"/>
			</clipPath>
			<rect x="193.23" y="94.879" clip-path="url(#SVGID_72_)" fill="#0076F0" width="145.782" height="210.092"/>
		</g>
		<g>
			<defs>
				<rect id="SVGID_73_" x="117.973" y="96.347" width="864.055" height="203.307"/>
			</defs>
			<defs>
				<path id="SVGID_74_" d="M367.588,212.231c-2.959-4.654-6.638-8.81-10.9-12.312l-12.819-10.73
					c-3.961-3.23-7.577-6.864-10.786-10.843c-2.921-3.565-4.499-8.042-4.462-12.65c-0.196-3.554,0.931-7.055,3.163-9.827
					c2.273-2.46,5.521-3.784,8.866-3.614c3.319-0.145,6.543,1.128,8.867,3.501c2.332,2.614,3.53,6.047,3.332,9.543v4.461
					l17.507,4.01v-8.472c0.351-7.853-2.339-15.539-7.511-21.458c-5.727-5.683-13.644-8.59-21.686-7.963
					c-4.207-0.052-8.384,0.696-12.312,2.201c-3.589,1.378-6.871,3.451-9.656,6.1c-2.756,2.657-4.913,5.872-6.326,9.431
					c-1.535,3.862-2.302,7.986-2.259,12.141c-0.097,5.088,0.846,10.142,2.768,14.853c1.798,4.226,4.236,8.15,7.229,11.634
					c2.124,2.498,4.427,4.838,6.89,7.004c2.447,2.146,4.913,4.217,7.398,6.212l7.398,6.042c2.566,1.943,4.983,4.076,7.229,6.383
					c1.467,1.835,2.63,3.894,3.445,6.099c0.785,2.56,1.128,5.232,1.017,7.906c0,8.547-4.612,12.819-13.836,12.819
					c-3.521,0.152-6.957-1.108-9.544-3.501c-2.489-2.445-3.824-5.832-3.672-9.318v-4.631l-17.901-3.783v8.414
					c-0.048,4.247,0.719,8.465,2.259,12.425c1.413,3.621,3.589,6.896,6.382,9.6c2.843,2.716,6.203,4.828,9.883,6.213
					c4.024,1.51,8.295,2.257,12.594,2.203c4.93,0.112,9.825-0.851,14.344-2.824c3.824-1.746,7.217-4.31,9.94-7.511
					c2.562-3.177,4.479-6.821,5.647-10.73c1.306-3.994,1.991-8.165,2.033-12.367c-0.011-2.943-0.429-5.87-1.242-8.697
					C370.149,217.401,369.046,214.721,367.588,212.231L367.588,212.231L367.588,212.231z"/>
			</defs>
			<clipPath id="SVGID_75_">
				<use xlink:href="#SVGID_73_"  overflow="visible"/>
			</clipPath>
			<clipPath id="SVGID_76_" clip-path="url(#SVGID_75_)">
				<use xlink:href="#SVGID_74_"  overflow="visible"/>
			</clipPath>
			<rect x="266.667" y="93.439" clip-path="url(#SVGID_76_)" fill="#0076F0" width="147.795" height="211.25"/>
		</g>
		<g>
			<defs>
				<rect id="SVGID_77_" x="117.973" y="96.347" width="864.055" height="203.307"/>
			</defs>
			<defs>
				<path id="SVGID_78_" d="M418.189,244.93c-6.099,0-9.149-4.217-9.149-12.649v-79.459h23.606v-15.586h-23.606v-28.237
					l-17.903,5.987v22.25h-11.294v15.586h11.294v79.459c-0.592,8.125,1.864,16.179,6.89,22.59
					c5.519,5.515,13.173,8.342,20.953,7.737c3.722-0.124,7.385-0.967,10.786-2.485c3.435-1.313,6.499-3.445,8.923-6.213
					l-12.368-12.988C424.568,243.667,421.436,245.211,418.189,244.93L418.189,244.93L418.189,244.93z"/>
			</defs>
			<clipPath id="SVGID_79_">
				<use xlink:href="#SVGID_77_"  overflow="visible"/>
			</clipPath>
			<clipPath id="SVGID_80_" clip-path="url(#SVGID_79_)">
				<use xlink:href="#SVGID_78_"  overflow="visible"/>
			</clipPath>
			<rect x="337.488" y="66.642" clip-path="url(#SVGID_80_)" fill="#0076F0" width="143.558" height="238.401"/>
		</g>
		<g>
			<defs>
				<rect id="SVGID_81_" x="117.973" y="96.347" width="864.055" height="203.307"/>
			</defs>
			<defs>
				<path id="SVGID_82_" d="M457.439,96.347c-2.646-0.032-5.145,1.208-6.721,3.332c-1.732,2.119-2.671,4.775-2.654,7.512
					c-0.075,2.831,0.867,5.596,2.654,7.793c1.606,2.073,4.098,3.267,6.721,3.218c2.565,0.071,4.997-1.135,6.495-3.218
					c1.671-2.261,2.599-4.984,2.654-7.793c0.061-2.759-0.837-5.455-2.542-7.625C462.488,97.495,460.031,96.298,457.439,96.347
					L457.439,96.347L457.439,96.347z"/>
			</defs>
			<clipPath id="SVGID_83_">
				<use xlink:href="#SVGID_81_"  overflow="visible"/>
			</clipPath>
			<clipPath id="SVGID_84_" clip-path="url(#SVGID_83_)">
				<use xlink:href="#SVGID_82_"  overflow="visible"/>
			</clipPath>
			<rect x="405.705" y="53.99" clip-path="url(#SVGID_84_)" fill="#0076F0" width="103.242" height="106.571"/>
		</g>
		<g>
			<defs>
				<rect id="SVGID_85_" x="448.064" y="137.235" width="17.902" height="122.492"/>
			</defs>
			<clipPath id="SVGID_86_">
				<use xlink:href="#SVGID_85_"  overflow="visible"/>
			</clipPath>
			<rect x="405.708" y="94.879" clip-path="url(#SVGID_86_)" fill="#0076F0" width="102.613" height="207.203"/>
		</g>
		<g>
			<defs>
				<rect id="SVGID_87_" x="117.973" y="96.347" width="864.055" height="203.307"/>
			</defs>
			<defs>
				<path id="SVGID_88_" d="M514.535,135.88c-4.085-0.171-8.16,0.502-11.973,1.976c-2.881,1.321-5.443,3.247-7.511,5.647
					l-4.066-5.647h-11.577v121.928h17.903v-94.482c-0.263-3.76,1.369-7.404,4.349-9.713c5.718-4.426,13.707-4.426,19.427,0
					c2.958,2.321,4.567,5.963,4.291,9.713v94.482h17.903v-95.046c0.376-7.833-2.459-15.481-7.85-21.177
					C529.844,138.193,522.266,135.408,514.535,135.88L514.535,135.88z"/>
			</defs>
			<clipPath id="SVGID_89_">
				<use xlink:href="#SVGID_87_"  overflow="visible"/>
			</clipPath>
			<clipPath id="SVGID_90_" clip-path="url(#SVGID_89_)">
				<use xlink:href="#SVGID_88_"  overflow="visible"/>
			</clipPath>
			<rect x="437.051" y="93.472" clip-path="url(#SVGID_90_)" fill="#0076F0" width="148.617" height="208.667"/>
		</g>
		<g>
			<defs>
				<rect id="SVGID_91_" x="117.973" y="96.347" width="864.055" height="203.307"/>
			</defs>
			<defs>
				<path id="SVGID_92_" d="M582.529,241.824c-0.87-1.271-1.378-2.754-1.468-4.292c-0.015-2.063,0.705-4.065,2.032-5.647
					c2.616-2.084,5.928-3.094,9.263-2.823c8.373,0.027,16.445-3.121,22.589-8.811c4.711-5.583,7.114-12.753,6.721-20.048v-48.116
					l8.527-13.44h-22.194c-2.205-1.021-4.544-1.724-6.946-2.09c-3.905-0.587-7.855-0.814-11.803-0.677
					c-8.072-0.433-15.976,2.419-21.912,7.905c-5.584,5.819-8.509,13.689-8.075,21.742v34.902
					c-0.452,11.321,5.907,21.815,16.151,26.656c-2.935,0.473-5.622,1.926-7.625,4.123c-1.392,1.563-2.208,3.556-2.315,5.646
					c-0.073,1.979,0.416,3.938,1.412,5.647c1.07,1.688,2.748,2.902,4.688,3.389c-5.803,1.208-11.078,4.212-15.079,8.584
					c-3.709,4.205-5.723,9.641-5.647,15.248c-0.316,6.664,2.208,13.149,6.946,17.847c5.547,4.711,12.738,7.026,19.993,6.438h23.38
					l9.771-17.62h-32.756c-2.391,0.08-4.757-0.506-6.833-1.694c-1.983-1.147-3.075-3.378-2.768-5.646
					c0-4.745,3.596-7.117,10.786-7.117h36.37l9.939-17.619h-38.968C585.012,244.153,583.477,243.24,582.529,241.824L582.529,241.824
					z M576.882,200.599v-35.692c-0.336-3.753,1.132-7.442,3.953-9.939c5.581-4.15,13.225-4.15,18.807,0
					c2.866,2.47,4.359,6.173,4.009,9.939v35.692c0.291,3.671-1.227,7.255-4.065,9.6c-5.537,4.286-13.271,4.286-18.807,0
					c-2.772-2.391-4.258-5.947-4.01-9.6H576.882L576.882,200.599z"/>
			</defs>
			<clipPath id="SVGID_93_">
				<use xlink:href="#SVGID_91_"  overflow="visible"/>
			</clipPath>
			<clipPath id="SVGID_94_" clip-path="url(#SVGID_93_)">
				<use xlink:href="#SVGID_92_"  overflow="visible"/>
			</clipPath>
			<rect x="508.465" y="93.481" clip-path="url(#SVGID_94_)" fill="#0076F0" width="164.083" height="242.971"/>
		</g>
		<g>
			<defs>
				<rect id="SVGID_95_" x="117.973" y="96.347" width="864.055" height="203.307"/>
			</defs>
			<defs>
				<path id="SVGID_96_" d="M696.043,212.231c-2.958-4.655-6.638-8.81-10.9-12.312l-12.933-10.73
					c-3.963-3.229-7.578-6.863-10.787-10.843c-2.92-3.565-4.498-8.042-4.46-12.65c-0.197-3.554,0.93-7.055,3.161-9.827
					c2.273-2.46,5.522-3.784,8.867-3.614c3.318-0.145,6.543,1.128,8.866,3.501c2.332,2.614,3.53,6.047,3.333,9.543v4.461
					l17.506,4.01v-8.472c0.351-7.853-2.34-15.539-7.511-21.458c-5.699-5.652-13.568-8.557-21.573-7.963
					c-4.206-0.052-8.383,0.696-12.312,2.201c-3.55,1.318-6.811,3.313-9.6,5.875c-2.756,2.658-4.911,5.873-6.326,9.43
					c-1.535,3.862-2.302,7.986-2.259,12.141c-0.097,5.088,0.846,10.142,2.767,14.853c1.712,4.208,4.055,8.131,6.946,11.633
					c2.125,2.498,4.428,4.838,6.891,7.003c2.447,2.146,4.913,4.218,7.398,6.213l7.397,6.042c2.458,2.028,4.761,4.237,6.89,6.608
					c1.468,1.835,2.631,3.894,3.446,6.099c1.073,2.509,1.703,5.183,1.863,7.906c0,8.547-4.612,12.819-13.837,12.819
					c-3.521,0.152-6.956-1.108-9.545-3.501c-2.592-2.396-4.03-5.789-3.952-9.318v-4.631l-17.846-3.614v8.245
					c-0.048,4.247,0.72,8.465,2.258,12.425c1.414,3.621,3.59,6.896,6.383,9.6c2.826,2.709,6.167,4.821,9.826,6.213
					c4.024,1.51,8.295,2.257,12.594,2.203c4.93,0.112,9.825-0.851,14.345-2.824c3.823-1.746,7.217-4.31,9.939-7.511
					c2.562-3.177,4.479-6.821,5.647-10.73c1.296-4.091,1.944-8.359,1.92-12.65c-0.011-2.943-0.429-5.869-1.243-8.696
					C698.5,217.222,697.437,214.64,696.043,212.231L696.043,212.231z"/>
			</defs>
			<clipPath id="SVGID_97_">
				<use xlink:href="#SVGID_95_"  overflow="visible"/>
			</clipPath>
			<clipPath id="SVGID_98_" clip-path="url(#SVGID_97_)">
				<use xlink:href="#SVGID_96_"  overflow="visible"/>
			</clipPath>
			<rect x="595.178" y="93.447" clip-path="url(#SVGID_98_)" fill="#1B2F45" width="147.626" height="211.242"/>
		</g>
		<g>
			<defs>
				<rect id="SVGID_99_" x="117.973" y="96.347" width="864.055" height="203.307"/>
			</defs>
			<defs>
				<path id="SVGID_100_" d="M771.266,152.821c-1.564-3.574-3.853-6.785-6.72-9.431c-2.888-2.518-6.248-4.438-9.884-5.647
					c-3.816-1.299-7.828-1.93-11.859-1.863c-4.148-0.041-8.273,0.628-12.199,1.976c-7.422,2.513-13.394,8.114-16.377,15.361
					c-1.593,3.905-2.382,8.093-2.315,12.31v66.358c-0.064,4.346,0.723,8.663,2.315,12.707c1.444,3.632,3.66,6.909,6.495,9.6
					c2.851,2.664,6.214,4.72,9.882,6.044c3.91,1.418,8.041,2.126,12.199,2.09c4.066,0.032,8.104-0.677,11.917-2.09
					c3.61-1.279,6.945-3.234,9.826-5.761c2.903-2.681,5.195-5.955,6.72-9.6c1.662-4.028,2.489-8.352,2.429-12.708v-66.866
					C773.781,161.016,772.953,156.761,771.266,152.821L771.266,152.821z M755.792,231.885c0.238,3.6-1.175,7.112-3.841,9.544
					c-5.343,4.413-13.065,4.413-18.41,0c-2.623-2.456-4.011-5.957-3.783-9.544v-66.583c-0.248-3.64,1.14-7.199,3.783-9.713
					c5.345-4.412,13.067-4.412,18.41,0c2.686,2.489,4.099,6.061,3.841,9.713V231.885L755.792,231.885z"/>
			</defs>
			<clipPath id="SVGID_101_">
				<use xlink:href="#SVGID_99_"  overflow="visible"/>
			</clipPath>
			<clipPath id="SVGID_102_" clip-path="url(#SVGID_101_)">
				<use xlink:href="#SVGID_100_"  overflow="visible"/>
			</clipPath>
			<rect x="669.553" y="93.519" clip-path="url(#SVGID_102_)" fill="#1B2F45" width="146.503" height="211.163"/>
		</g>
		<g>
			<defs>
				<rect id="SVGID_103_" x="117.973" y="96.347" width="864.055" height="203.307"/>
			</defs>
			<defs>
				<path id="SVGID_104_" d="M838.753,142.486c-2.887-2.417-6.256-4.189-9.884-5.195c-3.867-1.021-7.859-1.496-11.858-1.412
					c-4.12-0.037-8.226,0.495-12.199,1.581c-3.626,0.981-6.997,2.734-9.883,5.139c-2.874,2.479-5.102,5.619-6.494,9.149
					c-1.671,4.416-2.458,9.117-2.315,13.835v66.301c-0.094,4.459,0.692,8.892,2.315,13.045c1.455,3.61,3.67,6.865,6.494,9.545
					c2.865,2.55,6.231,4.474,9.883,5.647c7.826,2.613,16.289,2.613,24.114,0c3.634-1.216,6.991-3.135,9.884-5.647
					c2.933-2.588,5.232-5.814,6.721-9.432c1.716-4.307,2.542-8.917,2.428-13.553v-7.229l-17.902,5.647v1.977
					c0.264,3.621-1.151,7.161-3.84,9.601c-2.562,2.143-5.812,3.285-9.149,3.219c-3.396,0.095-6.704-1.095-9.262-3.332
					c-2.624-2.456-4.012-5.956-3.783-9.544v-66.527c-0.248-3.64,1.139-7.199,3.783-9.713c5.344-4.412,13.066-4.412,18.411,0
					c2.686,2.489,4.097,6.061,3.84,9.713v5.196h17.902v-5.196c0.134-4.655-0.692-9.288-2.428-13.609
					C844.019,148.138,841.697,144.985,838.753,142.486L838.753,142.486L838.753,142.486z"/>
			</defs>
			<clipPath id="SVGID_105_">
				<use xlink:href="#SVGID_103_"  overflow="visible"/>
			</clipPath>
			<clipPath id="SVGID_106_" clip-path="url(#SVGID_105_)">
				<use xlink:href="#SVGID_104_"  overflow="visible"/>
			</clipPath>
			<rect x="743.747" y="93.514" clip-path="url(#SVGID_106_)" fill="#1B2F45" width="146.58" height="210.923"/>
		</g>
		<g>
			<defs>
				<rect id="SVGID_107_" x="117.973" y="96.347" width="864.055" height="203.307"/>
			</defs>
			<defs>
				<path id="SVGID_108_" d="M866.369,96.347c-2.646-0.032-5.145,1.208-6.721,3.332c-1.733,2.119-2.672,4.775-2.654,7.512
					c-0.074,2.831,0.866,5.596,2.654,7.793c1.605,2.073,4.097,3.267,6.721,3.218c2.563,0.071,4.997-1.135,6.493-3.218
					c1.672-2.261,2.6-4.984,2.655-7.793c0.062-2.759-0.837-5.455-2.541-7.625C871.418,97.495,868.96,96.298,866.369,96.347
					L866.369,96.347L866.369,96.347z"/>
			</defs>
			<clipPath id="SVGID_109_">
				<use xlink:href="#SVGID_107_"  overflow="visible"/>
			</clipPath>
			<clipPath id="SVGID_110_" clip-path="url(#SVGID_109_)">
				<use xlink:href="#SVGID_108_"  overflow="visible"/>
			</clipPath>
			<rect x="814.635" y="53.99" clip-path="url(#SVGID_110_)" fill="#1B2F45" width="103.241" height="106.571"/>
		</g>
		<g>
			<defs>
				<rect id="SVGID_111_" x="857.784" y="135.88" width="16.942" height="124.242"/>
			</defs>
			<clipPath id="SVGID_112_">
				<use xlink:href="#SVGID_111_"  overflow="visible"/>
			</clipPath>
			<rect x="815.429" y="93.524" clip-path="url(#SVGID_112_)" fill="#1B2F45" width="101.654" height="208.955"/>
		</g>
		<g>
			<defs>
				<rect id="SVGID_113_" x="117.973" y="96.347" width="864.055" height="203.307"/>
			</defs>
			<defs>
				<path id="SVGID_114_" d="M943.229,143.447c-5.512-5.254-12.952-7.994-20.556-7.567c-3.557-0.065-7.107,0.333-10.562,1.186
					c-2.768,0.712-5.414,1.834-7.85,3.332c-2.13,1.329-4.035,2.987-5.647,4.913c-1.541,1.81-2.992,3.695-4.349,5.647l15.022,9.6
					c1.904-5.525,7.416-8.964,13.215-8.245c3.115-0.244,6.139,1.119,8.019,3.614c1.808,2.803,2.696,6.099,2.542,9.43v6.043
					c-2.299,2.408-4.813,4.601-7.511,6.551l-9.375,6.721c-3.237,2.335-6.495,4.932-9.77,7.794c-3.4,2.892-6.452,6.171-9.093,9.77
					c-2.677,3.787-4.806,7.931-6.325,12.312c-1.704,5.133-2.525,10.517-2.429,15.926c-0.134,4.976,0.651,9.935,2.315,14.627
					c1.43,3.725,3.623,7.11,6.438,9.938c2.464,2.507,5.455,4.435,8.753,5.647c3.125,1.176,6.433,1.787,9.771,1.808
					c4.329,0.215,8.632-0.782,12.425-2.881c2.847-1.672,5.217-4.043,6.889-6.89l4.066,7.003h11.804v-94.425
					C951.489,157.262,948.677,149.377,943.229,143.447L943.229,143.447L943.229,143.447z M933.46,228.893
					c0.104,4.021-1.062,7.974-3.332,11.294c-2.423,3.295-6.371,5.107-10.448,4.801c-3.793,0.221-7.471-1.347-9.939-4.235
					c-2.487-3.414-3.706-7.589-3.444-11.804c-0.078-4.268,0.933-8.485,2.937-12.255c1.938-3.563,4.372-6.834,7.229-9.714
					c2.767-2.791,5.813-5.289,9.093-7.454l8.132-5.31L933.46,228.893L933.46,228.893z"/>
			</defs>
			<clipPath id="SVGID_115_">
				<use xlink:href="#SVGID_113_"  overflow="visible"/>
			</clipPath>
			<clipPath id="SVGID_116_" clip-path="url(#SVGID_115_)">
				<use xlink:href="#SVGID_114_"  overflow="visible"/>
			</clipPath>
			<rect x="846.192" y="93.481" clip-path="url(#SVGID_116_)" fill="#1B2F45" width="147.237" height="211.398"/>
		</g>
		<g>
			<defs>
				<rect id="SVGID_117_" x="117.973" y="96.347" width="864.055" height="203.307"/>
			</defs>
			<defs>
				<polygon id="SVGID_118_" points="964.182,102.164 964.182,259.727 982.027,259.727 982.027,96.347 964.182,102.164 
					964.182,102.164 				"/>
			</defs>
			<clipPath id="SVGID_119_">
				<use xlink:href="#SVGID_117_"  overflow="visible"/>
			</clipPath>
			<clipPath id="SVGID_120_" clip-path="url(#SVGID_119_)">
				<use xlink:href="#SVGID_118_"  overflow="visible"/>
			</clipPath>
			<rect x="921.826" y="53.991" clip-path="url(#SVGID_120_)" fill="#1B2F45" width="102.557" height="248.091"/>
		</g>
	</g>
</g>
</svg>
